<svg width="446" height="418" viewBox="0 0 446 418" fill="none" xmlns="http://www.w3.org/2000/svg">
<mask id="mask0" mask-type="alpha" maskUnits="userSpaceOnUse" x="0" y="0" width="446" height="418">
<path d="M111.222 397.723C4.61502 334.886 -31.2896 198.456 30.5751 91.2821C110.227 -46.7062 382.477 -22.9384 437.013 126.765C493.655 282.251 253.782 481.752 111.222 397.723Z" fill="#360060"/>
</mask>
<g mask="url(#mask0)">
<path d="M-467.762 209.001V-36.999C-467.762 -92.2275 -422.991 -136.999 -367.762 -136.999H-203.977M-467.762 209.001L-787.739 209.762C-843.06 209.894 -887.977 165.084 -887.977 109.763V26.001C-887.977 -29.2275 -932.748 -73.999 -987.977 -73.999H-1411.98C-1467.21 -73.999 -1511.98 -29.2275 -1511.98 26.001V109.821C-1511.98 165.022 -1556.71 209.782 -1611.91 209.821L-1767.91 209.931C-1823.16 209.97 -1867.98 165.187 -1867.98 109.931V-135.999M-467.762 209.001V379.501M-1007.98 550.001H-567.762C-512.534 550.001 -467.762 505.229 -467.762 450.001V379.501M-467.762 379.501L190.472 379.059C237.787 379.027 276.12 417.451 275.975 464.766V464.766C275.83 512.069 314.144 550.489 361.447 550.474L965.744 550.283C1020.96 550.265 1065.71 505.499 1065.71 450.283V-129.999" stroke="#360060" stroke-width="280" stroke-linecap="round" stroke-linejoin="round"/>
</g>
</svg>
