<svg width="823" height="699" viewBox="0 0 823 699" fill="none" xmlns="http://www.w3.org/2000/svg">
<mask id="mask0" mask-type="alpha" maskUnits="userSpaceOnUse" x="0" y="0" width="823" height="699">
<path d="M736.994 87.0003C883.153 262.049 836.025 544.816 640.994 663C407.933 804.23 -190.764 493.501 60.9942 275C273.001 90.9999 561.374 -123.335 736.994 87.0003Z" fill="#360060"/>
</mask>
<g mask="url(#mask0)">
<path d="M317.226 -102V-348C317.226 -403.228 361.997 -448 417.226 -448H581.012M317.226 -102L-2.75032 -101.239C-58.0716 -101.107 -102.988 -145.917 -102.988 -201.238V-285C-102.988 -340.228 -147.76 -385 -202.988 -385H-626.988C-682.217 -385 -726.988 -340.228 -726.988 -285V-201.18C-726.988 -145.979 -771.717 -101.219 -826.918 -101.18L-982.918 -101.07C-1038.17 -101.031 -1082.99 -145.814 -1082.99 -201.07V-447M317.226 -102V68.5M-222.988 239H217.226C272.454 239 317.226 194.228 317.226 139V68.5M317.226 68.5L975.46 68.0576C1022.78 68.0258 1061.11 106.45 1060.96 153.765V153.765C1060.82 201.068 1099.13 239.488 1146.44 239.473L1750.73 239.282C1805.95 239.264 1850.7 194.498 1850.7 139.282V-441" stroke="#360060" stroke-width="280" stroke-linecap="round" stroke-linejoin="round"/>
</g>
</svg>
