<svg width="760" height="808" viewBox="0 0 760 808" fill="none" xmlns="http://www.w3.org/2000/svg">
<mask id="mask0" mask-type="alpha" maskUnits="userSpaceOnUse" x="0" y="0" width="760" height="808">
<path d="M670.674 551.58C592.864 711.369 376.776 768.112 230.499 667.166C55.6984 546.536 85.5404 21.6883 321.247 130.949C519.738 222.958 764.169 359.581 670.674 551.58Z" fill="#360060"/>
</mask>
<g mask="url(#mask0)">
<path d="M-928.723 325.994V79.9936C-928.723 24.7652 -883.952 -20.0063 -828.723 -20.0063H-664.938M-928.723 325.994L-1248.7 326.755C-1304.02 326.887 -1348.94 282.077 -1348.94 226.755V142.994C-1348.94 87.7652 -1393.71 42.9937 -1448.94 42.9937H-1872.94C-1928.17 42.9937 -1972.94 87.7652 -1972.94 142.994V226.814C-1972.94 282.015 -2017.67 326.775 -2072.87 326.814L-2228.87 326.923C-2284.12 326.962 -2328.94 282.179 -2328.94 226.923V-19.0063M-928.723 325.994V496.494M-1468.94 666.994H-1028.72C-973.495 666.994 -928.723 622.222 -928.723 566.994V496.494M-928.723 496.494L-270.489 496.051C-223.174 496.019 -184.841 534.444 -184.986 581.759V581.759C-185.131 629.062 -146.817 667.481 -99.5139 667.467L504.783 667.275C559.999 667.258 604.751 622.491 604.751 567.275V-13.0063" stroke="#360060" stroke-width="280" stroke-linecap="round" stroke-linejoin="round"/>
</g>
</svg>
