<svg viewBox="0 0 6037 1243" fill="none" xmlns="http://www.w3.org/2000/svg">
<path d="M175.5 391V535.5C175.5 590.728 220.272 635.5 275.5 635.5H1075C1130.23 635.5 1175 680.272 1175 735.5V850C1175 905.228 1219.77 950 1275 950H2289C2344.23 950 2389 905.228 2389 850V635.5M3296.5 175H2489C2433.77 175 2389 219.772 2389 275V635.5M2389 635.5H3405C3460.23 635.5 3505 680.272 3505 735.5V968C3505 1023.23 3549.77 1068 3605 1068H5761.5C5816.73 1068 5861.5 1023.23 5861.5 968V554.5" stroke="#E94F13" stroke-width="350" stroke-linecap="round" stroke-linejoin="round"/>
</svg>
