<svg width="769" height="686" viewBox="0 0 769 686" fill="none" xmlns="http://www.w3.org/2000/svg">
<mask id="mask0" mask-type="alpha" maskUnits="userSpaceOnUse" x="0" y="0" width="769" height="686">
<path d="M149.109 255.076C70.8847 -2.74327 290.088 94.6075 449.717 140.006C681.891 206.035 712.693 540.327 585.421 602.876C399.274 694.36 211.689 461.331 149.109 255.076Z" fill="#360060"/>
</mask>
<g mask="url(#mask0)">
<path d="M427.175 914.998V668.998C427.175 613.77 471.947 568.998 527.175 568.998H690.961M427.175 914.998L107.199 915.76C51.8776 915.891 6.96094 871.081 6.96094 815.76V731.998C6.96094 676.77 -37.8106 631.998 -93.039 631.998H-517.039C-572.268 631.998 -617.039 676.77 -617.039 731.998V815.818C-617.039 871.019 -661.768 915.779 -716.969 915.818L-872.969 915.928C-928.225 915.967 -973.039 871.184 -973.039 815.928V569.998M427.175 914.998V1085.5M-113.039 1256H327.175C382.404 1256 427.175 1211.23 427.175 1156V1085.5M427.175 1085.5L1085.41 1085.06C1132.72 1085.02 1171.06 1123.45 1170.91 1170.76V1170.76C1170.77 1218.07 1209.08 1256.49 1256.38 1256.47L1860.68 1256.28C1915.9 1256.26 1960.65 1211.5 1960.65 1156.28V575.998" stroke="#360060" stroke-width="280" stroke-linecap="round" stroke-linejoin="round"/>
</g>
</svg>
