<svg width="767" height="753" viewBox="0 0 767 753" fill="none" xmlns="http://www.w3.org/2000/svg">
<mask id="mask0" mask-type="alpha" maskUnits="userSpaceOnUse" x="0" y="0" width="767" height="753">
<path d="M524.742 539.3C379.698 802.62 261.034 637.24 153.204 540.157C-3.63068 398.952 249.016 82.0863 417.937 69.0568C664.998 50.0001 640.778 328.644 524.742 539.3Z" fill="#360060"/>
</mask>
<g mask="url(#mask0)">
<path d="M917.171 396.998V150.998C917.171 95.7691 961.943 50.9976 1017.17 50.9976H1180.96M917.171 396.998L597.195 397.759C541.874 397.891 496.957 353.081 496.957 297.759V213.998C496.957 158.769 452.186 113.998 396.957 113.998H-27.043C-82.2714 113.998 -127.043 158.769 -127.043 213.998V297.818C-127.043 353.019 -171.772 397.779 -226.973 397.818L-382.973 397.927C-438.229 397.966 -483.043 353.183 -483.043 297.927V51.9976M917.171 396.998V567.498M376.957 737.998H817.171C872.4 737.998 917.171 693.226 917.171 637.998V567.498M917.171 567.498L1575.41 567.055C1622.72 567.023 1661.05 605.448 1660.91 652.763V652.763C1660.76 700.066 1699.08 738.485 1746.38 738.47L2350.68 738.279C2405.89 738.262 2450.65 693.495 2450.65 638.279V57.9976" stroke="#360060" stroke-width="280" stroke-linecap="round" stroke-linejoin="round"/>
</g>
</svg>
